:SAMPLES-PER-SECOND 30
:FRAME-RANGE 1-2775
:FULLY-SPECIFIED
:DEGREES
1041
root  -17.7207 39.5561 10.4854 -143.509 -82.5872 144.404
RightUpLeg  -17.4717 -15.8808 3.67415
RightLeg  11.2942 -13.0887 -1.01231
RightFoot  -4.0314 -0.485612 7.16194
RightToes  -5.28216e-011 1.2921e-014 -6.02303e-014
Spine  5.4803 -4.67059 -12.3568
Spine1  -1.74322 -6.42251 7.16915
HEad  -13.7751 -60.3901 15.839
LeftShoulder1  1.51615 -0.88303 -28.4748
LeftArm  2.6435 4.46629 -23.6366
LeftForeArm  1.62541 -12.9151 -12.4765
LeftHand  0.157025 0.392483 -3.73549
RightShoulder  3.43128 2.67081 48.7486
RightArm  35.8891 -5.52207 16.6227
RightForeArm  -0.752191 13.6338 13.3125
RightHand  0.0575356 7.46614 0.15235
LeftUpLeg  4.62654 9.53031 -3.20117
LeftLeg  6.0741 23.226 -2.94828
LeftFoot  -9.44405 0.157403 -6.08654
LeftToes  -2.158e-010 -1.26819e-010 -1.05346e-011
1042
root  -18.8366 39.4134 10.7273 -147.845 -80.3606 148.656
RightUpLeg  -14.7859 -8.45825 1.48802
RightLeg  2.02559 -30.1267 6.60324
RightFoot  -1.08035 -0.177863 1.8981
RightToes  -5.28216e-011 1.2921e-014 -6.02303e-014
Spine  4.47272 -5.03934 -12.6585
Spine1  -1.38016 -6.79897 7.54694
HEad  -13.6858 -60.5158 15.6298
LeftShoulder1  1.50175 -0.886195 -28.1132
LeftArm  0.443912 4.00424 -23.0911
LeftForeArm  1.17343 -12.6578 -12.5209
LeftHand  0.15073 0.696574 -3.86703
RightShoulder  3.24042 2.33463 48.6968
RightArm  32.7432 -5.66854 16.0674
RightForeArm  2.52772 10.6382 15.2036
RightHand  0.102793 7.53937 0.55315
LeftUpLeg  6.934 8.9101 -4.83688
LeftLeg  5.16908 25.7228 -2.72708
LeftFoot  -10.4238 0.125126 -7.82896
LeftToes  -2.158e-010 -1.26819e-010 -1.05346e-011
1043
root  -20.0008 39.2847 10.9352 -151.201 -78.4795 151.839
RightUpLeg  -13.413 -6.10938 1.67839
RightLeg  -4.69415 -41.3538 13.0787
RightFoot  2.23287 1.37115 -11.3436
RightToes  -5.28216e-011 1.2921e-014 -6.02303e-014
Spine  3.67836 -5.45642 -12.4713
Spine1  -1.03455 -7.32795 7.97773
HEad  -13.8595 -60.6656 15.4152
LeftShoulder1  1.50386 -0.902195 -28.0352
LeftArm  0.280269 4.1074 -22.8211
LeftForeArm  0.640925 -13.1158 -12.2083
LeftHand  0.146088 0.787606 -3.83952
RightShoulder  3.01729 1.94624 48.5868
RightArm  26.5541 -5.52286 15.4616
RightForeArm  9.26228 6.2823 16.8611
RightHand  0.170556 7.72185 1.13486
LeftUpLeg  9.09712 8.8781 -5.74672
LeftLeg  5.03099 27.2029 -2.93641
LeftFoot  -11.3892 0.0642005 -9.32197
LeftToes  -2.158e-010 -1.26819e-010 -1.05346e-011
1044
root  -21.199 39.1416 11.108 -154.312 -76.7176 154.757
RightUpLeg  -12.9274 -5.56406 2.68103
RightLeg  -5.46693 -48.9623 13.8051
RightFoot  -0.626594 1.65713 -17.5514
RightToes  -5.28216e-011 1.2921e-014 -6.02303e-014
Spine  3.06477 -5.79177 -11.8229
Spine1  -0.829202 -7.76817 8.31901
HEad  -15.0497 -60.9518 16.0662
LeftShoulder1  1.51375 -0.906208 -28.2332
LeftArm  2.0622 4.5101 -22.9899
LeftForeArm  -0.342102 -14.121 -11.6346
LeftHand  0.140919 0.606898 -3.59168
RightShoulder  2.7211 1.43043 48.4175
RightArm  23.251 -5.60096 14.7548
RightForeArm  13.9237 3.68065 17.4216
RightHand  0.17108 7.81848 1.12649
LeftUpLeg  10.6835 9.47959 -5.9765
LeftLeg  6.56013 27.7405 -3.01607
LeftFoot  -12.6305 -0.0550056 -11.5636
LeftToes  -2.158e-010 -1.26819e-010 -1.05346e-011
1045
root  -22.4833 39.0263 11.2633 -160.508 -75.5376 160.201
RightUpLeg  -12.3515 -5.01274 3.61469
RightLeg  1.30178 -49.2899 7.81942
RightFoot  -4.78553 0.957181 -17.1205
RightToes  -5.28216e-011 1.2921e-014 -6.02303e-014
Spine  2.74076 -6.2294 -9.61864
Spine1  -0.175295 -8.28363 8.28605
HEad  -16.1786 -61.1278 16.5114
LeftShoulder1  1.55141 -0.96243 -28.6549
LeftArm  4.57658 5.44002 -23.7349
LeftForeArm  -1.59291 -15.3439 -10.8753
LeftHand  0.139779 0.473702 -3.3978
RightShoulder  2.59169 1.20568 48.3258
RightArm  21.0587 -5.48032 13.8325
RightForeArm  16.5375 1.62305 17.7668
RightHand  0.179883 7.9179 1.18987
LeftUpLeg  12.3948 12.9616 -3.87359
LeftLeg  10.3969 24.7715 -2.58341
LeftFoot  -13.8691 -0.239165 -14.5251
LeftToes  -2.158e-010 -1.26819e-010 -1.05346e-011
1046
root  -23.7317 38.9646 11.3825 -168.583 -74.1215 167.782
RightUpLeg  -11.921 -5.83616 4.86987
RightLeg  8.56947 -47.1305 2.48212
RightFoot  -7.2123 0.469603 -14.2796
RightToes  -5.28216e-011 1.2921e-014 -6.02303e-014
Spine  2.64742 -6.46906 -6.68328
Spine1  0.0159348 -8.54857 8.75849
HEad  -17.2301 -61.2462 16.7735
LeftShoulder1  1.60429 -1.01792 -29.414
LeftArm  7.03512 6.59907 -24.9817
LeftForeArm  -2.23473 -16.1105 -10.3904
LeftHand  0.151858 0.248488 -3.49315
RightShoulder  2.6945 1.42719 47.9723
RightArm  16.7535 -5.77892 12.9368
RightForeArm  20.3418 -0.754916 17.7219
RightHand  0.179921 7.94468 1.18653
LeftUpLeg  14.3519 34.8024 4.35386
LeftLeg  17.9732 3.18996 0.685108
LeftFoot  -13.6321 -0.300891 -18.9557
LeftToes  -2.158e-010 -1.26819e-010 -1.05346e-011
1047
root  -24.8031 38.8949 11.4466 -174.049 -71.4013 173.788
RightUpLeg  -12.1626 -6.20134 6.39703
RightLeg  13.171 -43.9124 -0.957477
RightFoot  -8.97988 0.18595 -11.8977
RightToes  -5.28216e-011 1.2921e-014 -6.02303e-014
Spine  2.23195 -6.26308 -4.41996
Spine1  -0.228962 -8.30752 9.74785
HEad  -17.2742 -61.2943 16.1781
LeftShoulder1  1.5864 -0.951276 -29.5447
LeftArm  6.36469 7.85708 -27.3051
LeftForeArm  0.238216 -15.4967 -10.7165
LeftHand  0.168669 -0.237313 -3.4804
RightShoulder  2.84981 1.72689 47.8161
RightArm  13.1779 -5.32077 12.1501
RightForeArm  21.9857 -2.72854 17.5923
RightHand  0.237105 7.93815 1.68392
LeftUpLeg  10.0596 35.9294 6.21932
LeftLeg  28.8398 3.27151 2.29488
LeftFoot  -8.89855 0.610406 -25.7514
LeftToes  -2.158e-010 -1.26819e-010 -1.05346e-011
